<?xml version="1.0" encoding="UTF-8" standalone="no"?>
<!-- Created with Inkscape (http://www.inkscape.org/) -->
<svg
   xmlns:dc="http://purl.org/dc/elements/1.1/"
   xmlns:cc="http://web.resource.org/cc/"
   xmlns:rdf="http://www.w3.org/1999/02/22-rdf-syntax-ns#"
   xmlns:svg="http://www.w3.org/2000/svg"
   xmlns="http://www.w3.org/2000/svg"
   xmlns:xlink="http://www.w3.org/1999/xlink"
   xmlns:sodipodi="http://inkscape.sourceforge.net/DTD/sodipodi-0.dtd"
   xmlns:inkscape="http://www.inkscape.org/namespaces/inkscape"
   width="350"
   height="320"
   id="svg1307"
   sodipodi:version="0.32"
   inkscape:version="0.43"
   sodipodi:docbase="/home/auxesis/code/zookeepr.dev/zookeepr/public"
   sodipodi:docname="cfp_go.svg"
   inkscape:export-filename="/home/auxesis/code/zookeepr.dev/zookeepr/public/cfp_go.png"
   inkscape:export-xdpi="63.75"
   inkscape:export-ydpi="63.75"
   version="1.0">
  <defs
     id="defs1309">
    <linearGradient
       id="linearGradient3837">
      <stop
         style="stop-color:#000000;stop-opacity:1;"
         offset="0"
         id="stop3839" />
      <stop
         style="stop-color:#ffffff;stop-opacity:0.78350514;"
         offset="1"
         id="stop3841" />
    </linearGradient>
    <linearGradient
       id="linearGradient2257">
      <stop
         style="stop-color:#2def29;stop-opacity:1;"
         offset="0"
         id="stop2259" />
      <stop
         style="stop-color:#24cc00;stop-opacity:1;"
         offset="1"
         id="stop2261" />
    </linearGradient>
    <linearGradient
       inkscape:collect="always"
       id="linearGradient3340">
      <stop
         style="stop-color:#ffffff;stop-opacity:1;"
         offset="0"
         id="stop3342" />
      <stop
         style="stop-color:#ffffff;stop-opacity:0;"
         offset="1"
         id="stop3344" />
    </linearGradient>
    <linearGradient
       inkscape:collect="always"
       id="linearGradient8662">
      <stop
         style="stop-color:#000000;stop-opacity:1;"
         offset="0"
         id="stop8664" />
      <stop
         style="stop-color:#000000;stop-opacity:0;"
         offset="1"
         id="stop8666" />
    </linearGradient>
    <radialGradient
       inkscape:collect="always"
       xlink:href="#linearGradient2257"
       id="radialGradient1379"
       gradientUnits="userSpaceOnUse"
       gradientTransform="matrix(2.365562,-4.942242e-16,5.359766e-16,2.202845,-30.72517,-34.23996)"
       cx="22.5"
       cy="28.116049"
       fx="22.5"
       fy="28.116049"
       r="14.537862" />
    <linearGradient
       inkscape:collect="always"
       xlink:href="#linearGradient3837"
       id="linearGradient1381"
       gradientUnits="userSpaceOnUse"
       x1="21.702389"
       y1="8.9115314"
       x2="21.816015"
       y2="35.546108" />
    <radialGradient
       inkscape:collect="always"
       xlink:href="#linearGradient8662"
       id="radialGradient1383"
       gradientUnits="userSpaceOnUse"
       gradientTransform="matrix(1,0,0,0.536723,-3.026552e-13,16.87306)"
       cx="24.837126"
       cy="36.421127"
       fx="24.837126"
       fy="36.421127"
       r="15.644737" />
    <radialGradient
       inkscape:collect="always"
       xlink:href="#linearGradient2257"
       id="radialGradient1385"
       gradientUnits="userSpaceOnUse"
       gradientTransform="matrix(2.365562,-4.942242e-16,5.359766e-16,2.202845,-30.72517,-34.23996)"
       cx="22.5"
       cy="28.116049"
       fx="22.5"
       fy="28.116049"
       r="14.537862" />
    <radialGradient
       inkscape:collect="always"
       xlink:href="#linearGradient3340"
       id="radialGradient1360"
       gradientUnits="userSpaceOnUse"
       gradientTransform="matrix(35.29943,-3.023494e-15,1.658968e-15,20.0749,-654.882,35.15927)"
       cx="21.929186"
       cy="-3.2182934"
       fx="21.929186"
       fy="-3.2182934"
       r="13" />
  </defs>
  <sodipodi:namedview
     id="base"
     pagecolor="#ffffff"
     bordercolor="#666666"
     borderopacity="0.11372549"
     inkscape:pageopacity="0.21176471"
     inkscape:pageshadow="2"
     inkscape:zoom="1"
     inkscape:cx="-44.1096"
     inkscape:cy="201.93548"
     inkscape:current-layer="layer1"
     showgrid="false"
     inkscape:grid-bbox="true"
     inkscape:document-units="px"
     gridspacingx="0.5px"
     gridspacingy="0.5px"
     gridempspacing="2"
     inkscape:grid-points="true"
     fill="#ef2929"
     showguides="false"
     inkscape:guide-bbox="true"
     guidetolerance="1px"
     stroke="#ef2929"
     inkscape:window-width="1022"
     inkscape:window-height="710"
     inkscape:window-x="0"
     inkscape:window-y="37"
     showborder="true"
     inkscape:showpageshadow="false">
    <sodipodi:guide
       orientation="horizontal"
       position="38.996647"
       id="guide2194" />
    <sodipodi:guide
       orientation="horizontal"
       position="9.0140845"
       id="guide2196" />
    <sodipodi:guide
       orientation="vertical"
       position="9.0140845"
       id="guide2198" />
    <sodipodi:guide
       orientation="vertical"
       position="38.975184"
       id="guide2200" />
    <sodipodi:guide
       orientation="horizontal"
       position="22.988281"
       id="guide2202" />
    <sodipodi:guide
       orientation="vertical"
       position="23.908786"
       id="guide2204" />
    <sodipodi:guide
       orientation="vertical"
       position="157.99417"
       id="guide4332" />
    <sodipodi:guide
       orientation="horizontal"
       position="-36.062446"
       id="guide4334" />
    <sodipodi:guide
       orientation="horizontal"
       position="-58.02695"
       id="guide4336" />
    <sodipodi:guide
       orientation="vertical"
       position="180.00287"
       id="guide4338" />
    <sodipodi:guide
       orientation="vertical"
       position="107.92217"
       id="guide4417" />
    <sodipodi:guide
       orientation="vertical"
       position="129.93087"
       id="guide4419" />
    <sodipodi:guide
       orientation="horizontal"
       position="19.996875"
       id="guide5106" />
    <sodipodi:guide
       orientation="horizontal"
       position="63.039674"
       id="guide5119" />
    <sodipodi:guide
       orientation="horizontal"
       position="49.066305"
       id="guide5121" />
    <sodipodi:guide
       orientation="horizontal"
       position="-86.007168"
       id="guide5307" />
    <sodipodi:guide
       orientation="horizontal"
       position="-108.09009"
       id="guide5309" />
    <sodipodi:guide
       orientation="horizontal"
       position="-100.15429"
       id="guide3111" />
  </sodipodi:namedview>
  <metadata
     id="metadata1312">
    <rdf:RDF>
      <cc:Work
         rdf:about="">
        <dc:format>image/svg+xml</dc:format>
        <dc:type
           rdf:resource="http://purl.org/dc/dcmitype/StillImage" />
        <dc:title>Media Record</dc:title>
        <dc:creator>
          <cc:Agent>
            <dc:title>Lapo Calamandrei</dc:title>
          </cc:Agent>
        </dc:creator>
        <cc:license
           rdf:resource="http://creativecommons.org/licenses/by-sa/2.0/" />
        <dc:subject>
          <rdf:Bag>
            <rdf:li>media</rdf:li>
            <rdf:li>player</rdf:li>
            <rdf:li>record</rdf:li>
            <rdf:li>music</rdf:li>
            <rdf:li>sound</rdf:li>
            <rdf:li>video</rdf:li>
          </rdf:Bag>
        </dc:subject>
      </cc:Work>
      <cc:License
         rdf:about="http://creativecommons.org/licenses/by-sa/2.0/">
        <cc:permits
           rdf:resource="http://web.resource.org/cc/Reproduction" />
        <cc:permits
           rdf:resource="http://web.resource.org/cc/Distribution" />
        <cc:requires
           rdf:resource="http://web.resource.org/cc/Notice" />
        <cc:requires
           rdf:resource="http://web.resource.org/cc/Attribution" />
        <cc:permits
           rdf:resource="http://web.resource.org/cc/DerivativeWorks" />
        <cc:requires
           rdf:resource="http://web.resource.org/cc/ShareAlike" />
      </cc:License>
    </rdf:RDF>
  </metadata>
  <g
     id="layer1"
     inkscape:label="Layer 1"
     inkscape:groupmode="layer"
     style="display:inline">
    <path
       transform="matrix(8.882669,0,0,9.585827,-24.86,-68.13161)"
       d="M 36.5 22 A 14 13 0 1 1  8.5,22 A 14 13 0 1 1  36.5 22 z"
       sodipodi:ry="13"
       sodipodi:rx="14"
       sodipodi:cy="22"
       sodipodi:cx="22.5"
       id="path3835"
       style="opacity:0.15;color:#000000;fill:url(#radialGradient1379);fill-opacity:1;fill-rule:evenodd;stroke:url(#linearGradient1381);stroke-width:3.13661647;stroke-linecap:square;stroke-linejoin:round;marker:none;marker-start:none;marker-mid:none;marker-end:none;stroke-miterlimit:4;stroke-dasharray:none;stroke-dashoffset:0;stroke-opacity:1;visibility:visible;display:inline;overflow:visible"
       sodipodi:type="arc"
       inkscape:r_cx="true"
       inkscape:r_cy="true" />
    <path
       inkscape:export-ydpi="90"
       inkscape:export-xdpi="90"
       inkscape:export-filename="/home/lapo/Desktop/Grafica/Icone/media-actions.png"
       sodipodi:type="arc"
       style="opacity:0.03999999;color:#000000;fill:url(#radialGradient1383);fill-opacity:1;fill-rule:evenodd;stroke:none;stroke-width:1;stroke-linecap:butt;stroke-linejoin:miter;marker:none;marker-start:none;marker-mid:none;marker-end:none;stroke-miterlimit:10;stroke-dasharray:none;stroke-dashoffset:0;stroke-opacity:1;visibility:visible;display:inline;overflow:visible"
       id="path2226"
       sodipodi:cx="24.837126"
       sodipodi:cy="36.421127"
       sodipodi:rx="15.644737"
       sodipodi:ry="8.3968935"
       d="M 40.481863 36.421127 A 15.644737 8.3968935 0 1 1  9.1923885,36.421127 A 15.644737 8.3968935 0 1 1  40.481863 36.421127 z"
       transform="matrix(11.10007,0,0,5.457597,-100.6938,71.73211)" />
    <path
       sodipodi:type="arc"
       style="color:#000000;fill:url(#radialGradient1385);fill-opacity:1;fill-rule:evenodd;stroke:#00cc01;stroke-width:1.0757246;stroke-linecap:square;stroke-linejoin:round;marker:none;marker-start:none;marker-mid:none;marker-end:none;stroke-miterlimit:4;stroke-dasharray:none;stroke-dashoffset:0;stroke-opacity:1;visibility:visible;display:inline;overflow:visible"
       id="path2525"
       sodipodi:cx="22.5"
       sodipodi:cy="22"
       sodipodi:rx="14"
       sodipodi:ry="13"
       d="M 36.5 22 A 14 13 0 1 1  8.5,22 A 14 13 0 1 1  36.5 22 z"
       transform="matrix(8.633419,0,0,9.316848,-19.2519,-62.29951)" />
    <path
       sodipodi:type="arc"
       style="color:#000000;fill:none;fill-opacity:1;fill-rule:evenodd;stroke:#82f77d;stroke-width:1.21742016;stroke-linecap:square;stroke-linejoin:round;marker:none;marker-start:none;marker-mid:none;marker-end:none;stroke-miterlimit:4;stroke-dasharray:none;stroke-dashoffset:0;stroke-opacity:1;visibility:visible;display:inline;overflow:visible"
       id="path2527"
       sodipodi:cx="24"
       sodipodi:cy="24"
       sodipodi:rx="14"
       sodipodi:ry="14"
       d="M 38 24 A 14 14 0 1 1  10,24 A 14 14 0 1 1  38 24 z"
       transform="matrix(7.924955,0,0,7.924955,-15.1989,-47.52771)" />
    <path
       style="opacity:0.6;fill:url(#radialGradient1360);fill-opacity:1;fill-rule:evenodd;stroke:none;stroke-width:0.25pt;stroke-linecap:butt;stroke-linejoin:miter;stroke-opacity:1;display:inline"
       d="M 177.32994,26.897884 C 116.74649,27.665798 67.30274,75.060101 63.36571,134.83227 C 122.38903,159.11357 197.18428,120.83121 286.63436,102.20462 C 279.99274,75.68707 242.69148,26.897884 178.83741,26.897884 C 178.33855,26.897884 177.82732,26.891584 177.32994,26.897884 z "
       id="path2529"
       sodipodi:nodetypes="cccsc" />
    <g
       id="g2515"
       transform="matrix(6.504271,0,0,6.504271,-1738.273,-96.61761)"
       style="fill:#ffffff;fill-opacity:0;fill-rule:nonzero">
      <path
         id="rect1872"
         d="M 291.30501,25.626806 C 291.17703,25.626806 291.0704,25.8013 291.0704,26.010713 L 292.13516,40.451537 C 292.13516,40.66095 292.2418,40.835444 292.36977,40.835445 C 292.36977,40.835445 293.2106,40.847348 293.90376,40.835445 C 294.1321,40.831524 294.20198,40.855757 294.40908,40.835445 C 295.10225,40.847348 295.94307,40.835445 295.94307,40.835445 C 296.07104,40.835445 296.17768,40.66095 296.17768,40.451537 L 297.24245,26.010713 C 297.24245,25.8013 297.13581,25.656337 297.00783,25.656337 L 294.42712,25.656337 C 294.41761,25.6544 294.41892,25.626806 294.40908,25.626806 L 291.30501,25.626806 z "
         style="fill:#ffffff;fill-opacity:0;fill-rule:nonzero;stroke:none;stroke-width:4.12249994;stroke-linecap:round;stroke-linejoin:round;stroke-miterlimit:4;stroke-dashoffset:0;stroke-opacity:1" />
      <path
         transform="matrix(0.504864,0,0,0.604182,302.4994,24.86238)"
         d="M -11.875 34.0625 A 4.5625 3.8125 0 1 1  -21,34.0625 A 4.5625 3.8125 0 1 1  -11.875 34.0625 z"
         sodipodi:ry="3.8125"
         sodipodi:rx="4.5625"
         sodipodi:cy="34.0625"
         sodipodi:cx="-16.4375"
         id="path2062"
         style="opacity:1;fill:#ffffff;fill-opacity:0;fill-rule:nonzero;stroke:none;stroke-width:4.12249994;stroke-linecap:round;stroke-linejoin:round;stroke-miterlimit:4;stroke-dasharray:none;stroke-dashoffset:0;stroke-opacity:1"
         sodipodi:type="arc" />
    </g>
    <path
       transform="matrix(7.159436,0,0,7.159436,1496.217,109.406)"
       style="font-size:12px;font-style:normal;font-variant:normal;font-weight:bold;font-stretch:normal;text-align:start;line-height:125%;writing-mode:lr-tb;text-anchor:start;font-family:Bitstream Vera Sans;fill:#ffffff;fill-opacity:1"
       d="M -189.46094,8.4805212 C -189.87501,8.6953652 -190.30665,8.8574744 -190.75586,8.9668493 C -191.20508,9.0762242 -191.67383,9.1309116 -192.16211,9.1309118 C -193.61914,9.1309116 -194.77344,8.724662 -195.625,7.9121618 C -196.47656,7.0957574 -196.90234,5.9902898 -196.90234,4.5957556 C -196.90234,3.1973238 -196.47656,2.0918562 -195.625,1.2793493 C -194.77344,0.46295156 -193.61914,0.054748839 -192.16211,0.054739933 C -191.67383,0.054748839 -191.20508,0.10943628 -190.75586,0.21880243 C -190.30665,0.32818607 -189.87501,0.49029528 -189.46094,0.70513056 L -189.46094,2.5156774 C -189.87891,2.2305279 -190.29102,2.0215437 -190.69727,1.8887243 C -191.10352,1.755919 -191.53126,1.6895128 -191.98047,1.6895056 C -192.78516,1.6895128 -193.41797,1.9473251 -193.87891,2.4629431 C -194.33985,2.978574 -194.57032,3.6895108 -194.57031,4.5957556 C -194.57032,5.4981028 -194.33985,6.2070864 -193.87891,6.7227087 C -193.41797,7.2383354 -192.78516,7.4961476 -191.98047,7.4961462 C -191.53126,7.4961476 -191.10352,7.4297415 -190.69727,7.2969274 C -190.29102,7.1641167 -189.87891,6.9551326 -189.46094,6.6699743 L -189.46094,8.4805212 M -187.58594,0.21294306 L -181.49805,0.21294306 L -181.49805,1.9180212 L -185.33008,1.9180212 L -185.33008,3.5469274 L -181.72656,3.5469274 L -181.72656,5.2520056 L -185.33008,5.2520056 L -185.33008,8.9609899 L -187.58594,8.9609899 L -187.58594,0.21294306 M -179.38281,0.21294306 L -175.63867,0.21294306 C -174.5254,0.21295181 -173.67188,0.46099843 -173.07812,0.95708368 C -172.48048,1.4492787 -172.18165,2.152403 -172.18164,3.0664587 C -172.18165,3.9844324 -172.48048,4.691463 -173.07812,5.1875524 C -173.67188,5.6797432 -174.5254,5.9258367 -175.63867,5.9258337 L -177.12695,5.9258337 L -177.12695,8.9609899 L -179.38281,8.9609899 L -179.38281,0.21294306 M -177.12695,1.8477087 L -177.12695,4.2910681 L -175.87891,4.2910681 C -175.44141,4.2910727 -175.10352,4.1856041 -174.86523,3.9746618 C -174.62696,3.7598233 -174.50782,3.4570892 -174.50781,3.0664587 C -174.50782,2.67584 -174.62696,2.375059 -174.86523,2.1641149 C -175.10352,1.9531844 -175.44141,1.8477158 -175.87891,1.8477087 L -177.12695,1.8477087"
       id="flowRoot2519" />
  </g>
</svg>
