<?xml version="1.0" encoding="UTF-8" standalone="no"?>
<!-- Created with Inkscape (http://www.inkscape.org/) -->
<svg
   xmlns:dc="http://purl.org/dc/elements/1.1/"
   xmlns:cc="http://web.resource.org/cc/"
   xmlns:rdf="http://www.w3.org/1999/02/22-rdf-syntax-ns#"
   xmlns:svg="http://www.w3.org/2000/svg"
   xmlns="http://www.w3.org/2000/svg"
   xmlns:sodipodi="http://inkscape.sourceforge.net/DTD/sodipodi-0.dtd"
   xmlns:inkscape="http://www.inkscape.org/namespaces/inkscape"
   width="744.09448819"
   height="1052.3622047"
   id="svg11625"
   sodipodi:version="0.32"
   inkscape:version="0.43"
   sodipodi:docbase="/home/auxesis/documents/community/seven/mylca/graphics"
   sodipodi:docname="feet.svg">
  <defs
     id="defs11627" />
  <sodipodi:namedview
     id="base"
     pagecolor="#ffffff"
     bordercolor="#666666"
     borderopacity="1.0"
     inkscape:pageopacity="0.0"
     inkscape:pageshadow="2"
     inkscape:zoom="1"
     inkscape:cx="375"
     inkscape:cy="859.66905"
     inkscape:document-units="px"
     inkscape:current-layer="layer1"
     inkscape:window-width="872"
     inkscape:window-height="581"
     inkscape:window-x="92"
     inkscape:window-y="71" />
  <metadata
     id="metadata11630">
    <rdf:RDF>
      <cc:Work
         rdf:about="">
        <dc:format>image/svg+xml</dc:format>
        <dc:type
           rdf:resource="http://purl.org/dc/dcmitype/StillImage" />
      </cc:Work>
    </rdf:RDF>
  </metadata>
  <g
     inkscape:label="Layer 1"
     inkscape:groupmode="layer"
     id="layer1">
    <g
       id="g6009"
       transform="translate(-252.2857,107.4286)"
       inkscape:export-filename="/home/auxesis/documents/community/seven/mylca/graphics/feet.png"
       inkscape:export-xdpi="96.589996"
       inkscape:export-ydpi="96.589996">
      <path
         sodipodi:nodetypes="csssssssc"
         id="path4210"
         d="M 586.51647,145.27103 C 567.56523,125.33413 566.91588,125.04174 564.95188,121.6627 C 559.40418,112.1179 562.41744,111.38653 569.54788,112.39671 C 577.97241,113.59023 586.65116,116.40055 586.76568,102.0357 C 587.06351,64.678754 601.52448,104.00417 612.2306,99.19896 C 632.77741,89.976964 631.31828,93.497564 626.85655,121.50326 C 624.62191,135.52983 626.19971,136.64502 626.1167,148.25186 C 625.99146,165.76559 622.25086,169.89335 615.37799,171.62567 C 607.88836,173.51345 607.08238,168.29886 586.51647,145.27103 z "
         style="fill:#f3d577;fill-opacity:1;fill-rule:nonzero;stroke:none;stroke-width:1.14589834;stroke-linecap:round;stroke-linejoin:round;stroke-miterlimit:0;stroke-dashoffset:42.49139985;stroke-opacity:1" />
      <path
         sodipodi:nodetypes="csssssssc"
         id="path7128"
         d="M 688.69982,120.25277 C 708.25889,100.31587 708.92907,100.02348 710.95606,96.64444 C 716.68169,87.099644 713.57178,86.368274 706.21265,87.378454 C 697.51792,88.571974 688.56081,91.382294 688.44262,77.017444 C 688.13524,39.660494 673.21046,78.985914 662.16096,74.180704 C 640.95515,64.958704 642.46108,68.479304 647.06591,96.485 C 649.37222,110.51157 647.74382,111.62676 647.82949,123.2336 C 647.95875,140.74733 651.81932,144.87509 658.91262,146.60741 C 666.64247,148.49519 667.4743,143.2806 688.69982,120.25277 z "
         style="fill:#f3d577;fill-opacity:1;fill-rule:nonzero;stroke:none;stroke-width:1.14589834;stroke-linecap:round;stroke-linejoin:round;stroke-miterlimit:0;stroke-dashoffset:42.49139985;stroke-opacity:1" />
    </g>
  </g>
</svg>
